# xmcd
#
# Track frame offsets: 
#        150
#        26747
#        53375
#        83684
#        110358
#        138176
#        165743
#        198264
#        227825
#        258102
#        284452
#        316555
#
# Disc length: 4647 seconds
#
# Revision: 0
# Processed by: cddbd v1.5.2PL0 Copyright (c) Steve Scherf et al.
# Submitted via: ExactAudioCopy v0.95b4
#
DISCID=8f12250c
DTITLE=Various Artist - Elevator
DYEAR=2006
DGENRE=House
TTITLE0=Freeform Five - No More Conversation (Mylo remix)
TTITLE1=The Egg - Walking Away (Tocadisco's acid walk mix)
TTITLE2=Arnold Palmer vs. Moti Special - Cold Days (Global Pirates rmx
TTITLE2=)
TTITLE3=Lazard - Living In Video (Original club mix)
TTITLE4=2-4 Grooves - The Way I Do (Original club mix)
TTITLE5=GMR Clan feat. Lars Brunn - Disco Fans (Original club mix)
TTITLE6=Eddie Thoneick vs. Tom Vega - My Body's Burning (Eddie Thoneic
TTITLE6=k bass spin mix)
TTITLE7=Jay feat. Inusagroove - Dance For Your Life (Jim Tonique remix
TTITLE7=)
TTITLE8=The Sugar Kingz - Only You (Horny United mix1)
TTITLE9=Commander Tom vs Oliver Cats - I can't sleep (Groovestylerz re
TTITLE9=mix)
TTITLE10=Patrick Bryze and Jim Tonique - Better World (Horny United mix)
TTITLE11=Guru Da Beat feat. Jay Smith - Sexuality (Jim Tonique's rocki
TTITLE11=n' mix)
EXTD=
EXTT0=
EXTT1=
EXTT2=
EXTT3=
EXTT4=
EXTT5=
EXTT6=
EXTT7=
EXTT8=
EXTT9=
EXTT10=
EXTT11=
PLAYORDER=
